<?xml version="1.0" standalone="no"?>
<!DOCTYPE svg PUBLIC "-//W3C//DTD SVG 20010904//EN" "http://www.w3.org/TR/2001/REC-SVG-20010904/DTD/svg10.dtd">
<!-- Created using Krita: https://krita.org -->
<svg xmlns="http://www.w3.org/2000/svg" 
    xmlns:xlink="http://www.w3.org/1999/xlink"
    xmlns:krita="http://krita.org/namespaces/svg/krita"
    xmlns:sodipodi="http://sodipodi.sourceforge.net/DTD/sodipodi-0.dtd"
    width="76.8pt"
    height="122.88pt"
    viewBox="0 0 76.8 122.88">
<defs/>
<path id="shape0" transform="matrix(0.24 0 0 0.24 -0.017999999999999 0)" fill="#ffffff" stroke-opacity="0" stroke="#000000" stroke-width="0" stroke-linecap="square" stroke-linejoin="bevel" d="M160.075 48C160.075 21.4903 181.565 4.86959e-15 208.075 0C234.585 -4.86959e-15 256.075 21.4903 256.075 48C256.075 74.5097 234.585 96 208.075 96C181.565 96 160.075 74.5097 160.075 48ZM126.575 199.3C125.575 199.7 124.675 200.1 123.675 200.5L115.675 204C99.275 211.3 86.675 225.2 80.975 242.2L78.375 250C72.775 266.8 54.675 275.8 37.875 270.2C21.075 264.6 12.075 246.5 17.675 229.7L20.275 221.9C31.675 187.8 56.875 160 89.675 145.4L97.675 141.9C118.475 132.7 140.975 127.9 163.775 127.9C208.375 127.9 248.575 154.7 265.675 195.8L281.075 232.7L302.475 243.4C318.275 251.3 324.675 270.5 316.775 286.3C308.875 302.1 289.675 308.5 273.875 300.6L247.075 287.3C236.775 282.1 228.675 273.5 224.275 262.8L214.675 239.8L195.375 305.3L244.875 359.3C250.275 365.2 254.075 372.3 256.075 380.1L279.075 472.2C283.375 489.3 272.975 506.7 255.775 511C238.575 515.3 221.275 504.9 216.975 487.7L194.975 399.6L124.275 322.5C109.475 306.4 103.975 283.9 109.575 262.8L126.475 199.3ZM68.775 398L93.775 335.6C95.875 338.6 98.275 341.4 100.775 344.2L141.475 388.6L126.975 424.8C124.575 430.8 120.975 436.3 116.375 440.9L54.675 502.6C42.175 515.1 21.875 515.1 9.375 502.6C-3.125 490.1 -3.125 469.8 9.375 457.3Z" sodipodi:nodetypes="ccccccccccccccccccccccccccccccccccccccccccccc"/>
</svg>
